inDegrees=yes
name=ik_lifting_orientations
DataType=double
version=3
OpenSimVersion=4.5-2024-01-10-34fd6af
endheader
time	pelvis_tilt	pelvis_list	pelvis_rotation	pelvis_tx	pelvis_ty	pelvis_tz	hip_flexion_r	hip_adduction_r	hip_rotation_r	knee_angle_r	knee_angle_r_beta	ankle_angle_r	subtalar_angle_r	mtp_angle_r	hip_flexion_l	hip_adduction_l	hip_rotation_l	knee_angle_l	knee_angle_l_beta	ankle_angle_l	subtalar_angle_l	mtp_angle_l	lumbar_extension	lumbar_bending	lumbar_rotation	arm_flex_r	arm_add_r	arm_rot_r	elbow_flex_r	pro_sup_r	wrist_flex_r	wrist_dev_r	arm_flex_l	arm_add_l	arm_rot_l	elbow_flex_l	pro_sup_l	wrist_flex_l	wrist_dev_l
0.61	-0.5220839548604796	18.41492704348128	-90.30882215034254	0	0.9399999998679526	0	43.68428030272596	-10.41187609758571	0	58.2268556670991	1.016250344474399	-5.172277313737501	0	0	43.68428030272596	-10.41187609758571	0	58.2268556670991	1.016250344474399	-5.172277313737501	0	0	-17.9338916979191	2.288872024028171	-4.677875177558072	36.15397361894807	3.007066182061376	11.97570701100423	0.3206189021773679	4.775159239913852	0	0	0	-10.33812273035392	0	85.27488529154297	4.775159239913852	0	0
0.62	-0.7718803715728357	19.54960063045412	-90.14310970435646	0	0.9399999998679526	0	43.68461208598015	-10.41151415201612	0	58.22720753054474	1.016256485650042	-5.172079938024608	0	0	43.68461208598015	-10.41151415201612	0	58.22720753054474	1.016256485650042	-5.172079938024608	0	0	-17.9801382949739	2.668123143999872	-4.865142138756299	36.99295683666704	3.044117768402087	12.53475899419601	0.487752142769358	4.774318766004924	0	0	0	-10.33872638229275	0	85.27571688046159	4.774318766004924	0	0
0.63	-1.010365964415337	20.67668973048555	-90.01621751436612	0	0.9399999998679526	0	43.68529135147674	-10.41077358307169	0	58.22792677022676	1.016269038750605	-5.171676396143909	0	0	43.68529135147674	-10.41077358307169	0	58.22792677022676	1.016269038750605	-5.171676396143909	0	0	-18.15858293140313	3.18030059054936	-5.12548653790031	37.86155437237743	3.000067737543253	13.15520891572492	0.8365861252737269	4.772598771326491	0	0	0	-10.33996112807602	0	85.27741869213718	4.772598771326491	0	0
0.64	-1.181228855297005	21.7865198506476	-89.86688659675288	0	0.9399999998679526	0	43.68624364556265	-10.40973587344493	0	58.22893443650847	1.016286625844982	-5.171111191698934	0	0	43.68624364556265	-10.40973587344493	0	58.22893443650847	1.016286625844982	-5.171111191698934	0	0	-18.47776591578292	3.782447146848848	-5.437463174344501	38.89531628453392	2.602636086526581	13.88787122526533	1.285053900725883	4.770187727635494	0	0	0	-10.34169169906152	0	85.27980424730865	4.770187727635494	0	0
0.65	-1.136830702040954	22.78481711732842	-89.92985528882068	0	0.9399999998679526	0	43.68717074162571	-10.40872722435133	0	58.22991549537479	1.016303748552355	-5.17056220102801	0	0	43.68717074162571	-10.40872722435133	0	58.22991549537479	1.016303748552355	-5.17056220102801	0	0	-18.77647401959873	4.122868660747264	-5.692617729267126	39.78678444255893	2.188403880123489	14.51490313531767	1.786813395768663	4.767840079197135	0	0	0	-10.34337693411132	0	85.28212707758163	4.767840079197135	0	0
0.66	-1.044352257458582	23.78849319035686	-90.07685547030346	0	0.9399999998679526	0	43.68808702419975	-10.40773267565105	0	58.23088565572591	1.016320681044754	-5.170021361610008	0	0	43.68808702419975	-10.40773267565105	0	58.23088565572591	1.016320681044754	-5.170021361610008	0	0	-18.76134167819783	4.389953853996895	-5.917164834936107	40.41254834689983	1.836639933790098	15.32861313386181	2.217642246459875	4.765518946012429	0	0	0	-10.34504358495951	0	85.2844236732201	4.765518946012429	0	0
0.67	-1.092494143112688	24.73162574387732	-90.06876423780481	0	0.9399999998679526	0	43.68883770991019	-10.40692016161052	0	58.23168125510847	1.016334566873507	-5.169579935743812	0	0	43.68883770991019	-10.40692016161052	0	58.23168125510847	1.016334566873507	-5.169579935743812	0	0	-18.68815238108553	4.737035254277759	-6.038616295093769	40.95101278446479	1.456269010960286	15.75310460707945	2.645760741439153	4.763616323212946	0	0	0	-10.34641026212617	0	85.28630618302898	4.763616323212946	0	0
0.68	-1.155154007004233	25.73491062177184	-90.01810628876325	0	0.9399999998679526	0	43.68944183479788	-10.40626892512838	0	58.23232268568663	1.016345761949019	-5.169226566540917	0	0	43.68944183479788	-10.40626892512838	0	58.23232268568663	1.016345761949019	-5.169226566540917	0	0	-18.6051366904582	4.853229429730298	-5.902360445596121	41.56973356446329	1.048091504061285	15.72503055475982	3.115987546516751	4.762083876661247	0	0	0	-10.347511757131	0	85.2878224302052	4.762083876661247	0	0
0.6899999999999999	-1.185903521078287	26.72700176349191	-89.93895523850178	0	0.9399999998679526	0	43.69029801594365	-10.40534406897137	0	58.2332298073341	1.016361594208483	-5.168724609929201	0	0	43.69029801594365	-10.40534406897137	0	58.2332298073341	1.016361594208483	-5.168724609929201	0	0	-18.84302627827845	4.945709191734514	-5.817198193145916	42.5014507051356	0.6708906828442949	15.72883337248566	3.541080001292332	4.759913626484801	0	0	0	-10.3490707058635	0	85.28996973838449	4.759913626484801	0	0
0.7	-0.9808192706013323	27.73272931548125	-90.22048611210042	0	0.9399999998679526	0	43.69101899729486	-10.40456891916779	0	58.23399526301513	1.016374953930395	-5.168304514986527	0	0	43.69101899729486	-10.40456891916779	0	58.23399526301513	1.016374953930395	-5.168304514986527	0	0	-19.05483155694307	4.779655631432873	-5.580250344488571	43.58954825184883	0.5332014117849759	15.69240982353312	3.75497041057963	4.758084319310798	0	0	0	-10.35038573043896	0	85.29177970827853	4.758084319310798	0	0
